<svg width="30" height="48" viewBox="0 0 30 48" fill="none" xmlns="http://www.w3.org/2000/svg">
<path fill-rule="evenodd" clip-rule="evenodd" d="M28.9656 14.4C28.9656 22.3531 22.7132 28.8 15.0001 28.8C7.28696 28.8 1.03455 22.3531 1.03455 14.4C1.03455 6.44693 7.28696 0 15.0001 0C22.7132 0 28.9656 6.44693 28.9656 14.4Z" fill="#FEFEFE"/>
<path fill-rule="evenodd" clip-rule="evenodd" d="M27.9312 16.5333C26.8967 24.5333 22.1422 28.8 15.0002 28.8C7.85809 28.8 3.1036 23.4666 2.06912 16.5333C1.03464 9.59997 7.85809 2.1333 15.0002 2.1333C22.1422 2.1333 28.9657 8.5333 27.9312 16.5333Z" stroke="#333333" stroke-width="3" stroke-linecap="round" stroke-linejoin="round"/>
<path fill-rule="evenodd" clip-rule="evenodd" d="M3.10352 20.2666L15.5846 45.8666L26.8966 20.2666" fill="#FEFEFE"/>
<path d="M3.10352 20.2666L6.2411 26.7018L15.5846 45.8666L26.8966 20.2666" stroke="#333333" stroke-width="3" stroke-linecap="round" stroke-linejoin="round"/>
<path fill-rule="evenodd" clip-rule="evenodd" d="M19.6553 13.8668C19.6553 14.9984 19.2193 16.0836 18.4433 16.8838C17.6673 17.6839 16.6148 18.1334 15.5173 18.1334C14.4199 18.1334 13.3674 17.6839 12.5914 16.8838C11.8154 16.0836 11.3794 14.9984 11.3794 13.8668C11.3794 12.7352 11.8154 11.6499 12.5914 10.8498C13.3674 10.0496 14.4199 9.6001 15.5173 9.6001C16.6148 9.6001 17.6673 10.0496 18.4433 10.8498C19.2193 11.6499 19.6553 12.7352 19.6553 13.8668V13.8668Z" stroke="#EC1D7F" stroke-width="3" stroke-linecap="round" stroke-linejoin="round"/>
</svg>
