<svg width="12" height="18" viewBox="0 0 12 18" fill="none" xmlns="http://www.w3.org/2000/svg">
<g clip-path="url(#clip0)">
<path fill-rule="evenodd" clip-rule="evenodd" d="M5.80881 16.0576C5.8974 15.92 5.98905 15.7767 6.08341 15.6282C6.75816 14.5662 7.43285 13.4558 8.06173 12.3529C8.39793 11.7633 8.71223 11.191 9.00058 10.6409C10.1885 8.37477 10.8677 6.6082 10.8677 5.67282C10.8677 2.95805 8.60673 0.75 5.80889 0.75C3.01103 0.75 0.75 2.95806 0.75 5.67282C0.75 6.6082 1.42919 8.37477 2.61709 10.6409C2.90544 11.191 3.21973 11.7633 3.55593 12.3529C4.1848 13.4558 4.85949 14.5662 5.53422 15.6282C5.62858 15.7767 5.72023 15.92 5.80881 16.0576Z" stroke="#FF3278" stroke-width="1.5"/>
<path d="M6 8C7.10457 8 8 7.10457 8 6C8 4.89543 7.10457 4 6 4C4.89543 4 4 4.89543 4 6C4 7.10457 4.89543 8 6 8Z" fill="#FF3278"/>
</g>
<defs>
<clipPath id="clip0">
<rect width="12" height="18" fill="white"/>
</clipPath>
</defs>
</svg>
