<svg width="15" height="16" viewBox="0 0 15 16" fill="none" xmlns="http://www.w3.org/2000/svg">
<path fill-rule="evenodd" clip-rule="evenodd" d="M7.482 1.43999L13.405 0.662988C13.5432 0.644782 13.6836 0.65566 13.8173 0.694923C13.9511 0.734186 14.0751 0.800967 14.1815 0.890982C14.2879 0.980996 14.3743 1.09226 14.4352 1.21763C14.4961 1.343 14.5301 1.47971 14.535 1.61899L14.743 7.53399C14.7518 7.78102 14.6688 8.02255 14.51 8.21199L8.33 15.576C8.15965 15.779 7.91566 15.9061 7.65166 15.9294C7.38765 15.9526 7.12521 15.8701 6.922 15.7L0.793996 10.557C0.693319 10.4726 0.610248 10.3693 0.549528 10.2528C0.488808 10.1363 0.451629 10.009 0.440114 9.87817C0.428599 9.74733 0.442974 9.6155 0.482418 9.49021C0.521861 9.36493 0.585601 9.24864 0.669996 9.14799L6.846 1.78799C7.00684 1.59615 7.23378 1.47161 7.482 1.43899V1.43999ZM8.892 7.81999C9.739 8.52999 10.983 8.43999 11.672 7.61899C12.361 6.79799 12.234 5.55699 11.387 4.84699C10.541 4.13699 9.297 4.22699 8.607 5.04699C7.919 5.86899 8.047 7.10999 8.892 7.81999Z" fill="black"/>
</svg>
