<?xml version="1.0" encoding="utf-8"?>
<!-- Generator: Adobe Illustrator 24.1.3, SVG Export Plug-In . SVG Version: 6.00 Build 0)  -->
<svg version="1.1" id="Layer_1" xmlns="http://www.w3.org/2000/svg" xmlns:xlink="http://www.w3.org/1999/xlink" x="0px" y="0px"
	 viewBox="0 0 48 48" style="enable-background:new 0 0 48 48;" xml:space="preserve">
<style type="text/css">
	.st0{stroke:#000000;stroke-width:0.672;stroke-miterlimit:3.84;}
</style>
<desc>Created with Sketch.</desc>
<g id="Care_icon_web_blk">
	<path id="care" class="st0" d="M37.1,29.3v-0.1l0.2-0.2c1.8-0.6,3-2.2,3-4.1v-0.2c0-2.4-2-4.3-4.5-4.3s-4.5,2-4.5,4.4
		c0,2,1.3,3.7,3.3,4.3l0.1,0.2v2.1c0,4.2-3.4,7.5-7.7,7.5c-4.2,0-7.7-3.4-7.7-7.6l0.1-2.3l0.2-0.2c5.3-0.7,9.4-5.2,9.4-10.5v-8.2
		l0,0l0,0l0,0l0,0l0,0l0,0c0-0.8-0.5-1.4-1.1-1.5h-1.7c-0.6,0-1.1,0.7-1.1,1.5s0.5,1.5,1.2,1.5l0.3,0.1l0.1,0.2v6.7
		c0,4.6-3.8,8.3-8.4,8.3S10,23.1,10,18.5l0.1-6.7l0.2-0.2h0.2c0.6,0,1.2-0.6,1.2-1.5c0-0.8-0.5-1.4-1.1-1.5H8.8
		c-0.6,0-1.1,0.7-1.1,1.5l0,0l0,0c0,0,0,0,0,0.1v8.2c0,5.3,4,9.8,9.3,10.6l0.2,0.2v2.2c0,5.4,4.5,9.8,10,9.8s10-4.4,10-9.8v-2.1
		H37.1z M36,22.1c1.3,0,2.4,1.1,2.4,2.4s-1.1,2.4-2.4,2.4c-1.3,0-2.4-1.1-2.4-2.4S34.7,22.1,36,22.1z"/>
</g>
</svg>
