<svg xmlns="http://www.w3.org/2000/svg" width="24" height="22" viewBox="0 0 24 22">
    <path fill="#000" fill-rule="evenodd" d="M4.646 2h18.059l-.132.267h.82l-4.92 9.032a2.256 2.256 0 0 1-1.983 1.168H8.047l-1.02 1.847-.034.136c0 .159.136.283.283.283H20.4V17H6.8a2.273 2.273 0 0 1-2.267-2.267c0-.396.102-.77.284-1.088l1.53-2.776-4.08-8.602H0V0h3.706l.94 2zm15.268 2H5.594l.254.533 2.539 5.361.147.306h7.956l3.128-5.667.296-.533zM5.01 20c0-1.1.89-2 1.99-2s2 .9 2 2-.9 2-2 2-1.99-.9-1.99-2zm10 0c0-1.1.89-2 1.99-2s2 .9 2 2-.9 2-2 2-1.99-.9-1.99-2z"/>
</svg>
