<?xml version="1.0" encoding="utf-8"?>
<!-- Generator: Adobe Illustrator 25.2.3, SVG Export Plug-In . SVG Version: 6.00 Build 0)  -->
<svg version="1.1" id="Layer_1" xmlns="http://www.w3.org/2000/svg" xmlns:xlink="http://www.w3.org/1999/xlink" x="0px" y="0px"
	 viewBox="0 0 126 42" style="enable-background:new 0 0 126 42;" xml:space="preserve">
<style type="text/css">
	.st0{fill:#FFFFFF;}
	.st1{fill:#EE3B79;}
	.st2{fill:#41BBEC;}
	.st3{fill:#FEDA16;}
</style>
<g>
	<path class="st0" d="M39.61,19.26H4.87c-0.65,0-1.19,0.53-1.19,1.19v1.68c0,0.65,0.53,1.18,1.19,1.18h34.73
		c0.65,0,1.19-0.53,1.19-1.18v-1.68C40.79,19.79,40.26,19.26,39.61,19.26"/>
	<path class="st0" d="M24.61,26.02c-0.23-0.26-0.55-0.41-0.9-0.41h-3c-0.35,0-0.67,0.15-0.9,0.41l-9.14,10.6
		c-0.21,0.24-0.31,0.55-0.28,0.86c0.02,0.32,0.17,0.6,0.41,0.81l1.28,1.1c0.21,0.19,0.49,0.29,0.77,0.29c0.35,0,0.67-0.15,0.9-0.41
		l7.77-9c0.17-0.2,0.43-0.32,0.7-0.32c0.27,0,0.52,0.12,0.7,0.32l7.77,9.05c0.22,0.26,0.55,0.41,0.9,0.41c0.28,0,0.56-0.1,0.77-0.29
		l1.28-1.1c0.24-0.21,0.39-0.49,0.41-0.81c0.02-0.32-0.08-0.62-0.28-0.86L24.61,26.02z"/>
	<path class="st0" d="M22.83,35.18h-1.25c-0.49,0-0.89,0.4-0.89,0.89v5.05c0,0.49,0.4,0.89,0.89,0.89h1.25
		c0.49,0,0.89-0.4,0.89-0.89v-5.05C23.72,35.58,23.32,35.18,22.83,35.18"/>
	<path class="st1" d="M21.57,4.61h1.27c0.49,0,0.89-0.4,0.89-0.89V0.89c0-0.49-0.4-0.89-0.89-0.89h-1.27c-0.49,0-0.89,0.4-0.89,0.89
		v2.84C20.68,4.21,21.08,4.61,21.57,4.61"/>
	<path class="st2" d="M14.24,27.05l-0.7-1.04c-0.27-0.41-0.82-0.52-1.23-0.24L6.7,29.53c-0.41,0.27-0.52,0.82-0.24,1.23l0.7,1.04
		c0.27,0.41,0.82,0.51,1.23,0.24L14,28.28C14.41,28,14.51,27.45,14.24,27.05"/>
	<path class="st0" d="M30.9,15.9c0.27,0.41,0.82,0.51,1.23,0.24l5.62-3.76c0.41-0.27,0.52-0.82,0.24-1.23l-0.7-1.04
		c-0.27-0.41-0.82-0.52-1.23-0.24l-5.62,3.76c-0.41,0.27-0.52,0.82-0.24,1.23L30.9,15.9z"/>
	<path class="st3" d="M37.78,29.57l-5.62-3.76c-0.41-0.27-0.96-0.16-1.23,0.24l-0.7,1.04c-0.27,0.41-0.16,0.96,0.24,1.23l5.62,3.76
		c0.41,0.27,0.96,0.16,1.23-0.24l0.7-1.04C38.3,30.4,38.19,29.85,37.78,29.57"/>
	<path class="st0" d="M6.72,12.4l5.62,3.76c0.41,0.27,0.96,0.16,1.23-0.24l0.7-1.04c0.27-0.41,0.16-0.96-0.24-1.23L8.41,9.89
		C8,9.62,7.45,9.73,7.17,10.14l-0.7,1.04C6.21,11.58,6.32,12.13,6.72,12.4"/>
	<path class="st0" d="M22.21,9.76c1.23,0,2.23,1,2.23,2.23c0,1.23-1,2.23-2.23,2.23c-1.23,0-2.23-1-2.23-2.23
		C19.98,10.76,20.98,9.76,22.21,9.76 M22.21,17.4c2.99,0,5.41-2.42,5.41-5.41c0-2.99-2.42-5.41-5.41-5.41
		c-2.99,0-5.41,2.42-5.41,5.41C16.8,14.98,19.22,17.4,22.21,17.4"/>
	<path class="st0" d="M72.81,14.48c0,0-1.88,0-1.93,0c-0.52,0-0.46,0.52-0.46,0.52c0,0.46-0.03,5.37-0.05,7.21
		c-0.04,1.36-0.7,2.51-1.84,3.04c-1.43,0.66-3.67,0.41-3.8-1.9c-0.02-0.36-0.07-8.22-0.07-8.33c0-0.27-0.1-0.54-0.52-0.54H62.3
		c-0.5,0-0.55,0.33-0.55,0.64c0,2.21-0.01,4.76,0.01,6.96c0.01,0.75,0,1.52,0.11,2.25c0.3,2.11,1.53,3.33,3.47,3.81
		c2.07,0.52,4.48-0.27,5.65-1.71c0.03,0.08,0.45,1.15,0.5,1.26c0.11,0.25,0.21,0.34,0.45,0.34h1.02c0.35,0,0.34-0.27,0.34-0.45
		c0.03-3.97,0.03-8.66,0.03-12.63C73.33,14.67,73.18,14.48,72.81,14.48"/>
	<path class="st0" d="M58.75,23.71c-0.29-0.23-0.54-0.14-0.72,0.08c-0.05,0.06-1.61,2.05-4.12,1.66c-2.1-0.32-3.29-2.02-3.33-4.15
		c-0.04-1.9,0.98-3.4,2.46-3.98c0.92-0.36,2.55-0.46,3.8,0.38c0.19,0.12,0.63,0.47,0.81,0.63c0.19,0.17,0.39,0.34,0.73,0.11
		c0.19-0.14,0.81-0.66,1.2-1.01c0.46-0.42,0.17-0.7-0.2-1.12c-1.48-1.71-3.76-2.25-5.75-2.01c-3.16,0.38-5.46,2.72-5.8,6.07
		c-0.3,3.06,1.03,6.1,3.96,7.33c1.02,0.43,1.92,0.53,2.77,0.54c2.64,0.03,4.43-1.6,5.24-2.62c0.25-0.32,0.33-0.56,0.1-0.81
		C59.68,24.58,58.81,23.76,58.75,23.71"/>
	<path class="st0" d="M100.92,9.01c-3.93-0.4-5.21,1.48-5.14,4.54v0.94c-0.03,0-1.53,0-1.6,0c-0.41,0-0.56,0.2-0.56,0.49v1.58
		c0,0.34,0.17,0.45,0.47,0.45c0.16,0,1.7,0,1.7,0c0,1.44,0,2.99,0,4.34c0,1.92,0,5.77,0,6.17c0,0.5,0.27,0.55,0.53,0.55
		c0.39,0,1.48,0,1.87,0c0.47,0,0.54-0.31,0.54-0.64V16.99h2.22c0.26,0,0.43-0.12,0.43-0.49v-1.58c0-0.35-0.22-0.44-0.49-0.44h-2.16
		v-1.23c0-0.43-0.14-1.84,1.86-1.7c0.14,0.01,0.27,0.03,0.41,0.03c0.26,0,0.46-0.16,0.46-0.47l0.03-1.53
		C101.49,9.31,101.39,9.05,100.92,9.01"/>
	<path class="st0" d="M109.21,9.64c0-0.5,0.33-0.63,0.66-0.63c0.38,0,1.37,0,1.75,0c0.53,0,0.6,0.44,0.6,0.68v4.8h2.69
		c0.33,0,0.47,0.21,0.47,0.49v1.54c0,0.35-0.23,0.48-0.55,0.48h-2.61v6.3c0,0.58,0,2.02,1.5,2.04c0.14,0,0.57,0.01,0.76,0.01
		c0.38,0.01,0.54,0.35,0.59,0.55l0.37,1.73c0.04,0.28-0.18,0.42-0.4,0.43l0,0c-0.96,0.04-1.74,0.03-2.39-0.07
		c-2.25-0.35-3.42-1.7-3.42-4.28C109.23,23.69,109.21,10.04,109.21,9.64"/>
	<path class="st0" d="M81.98,9.64c0-0.5,0.33-0.63,0.66-0.63c0.38,0,1.37,0,1.75,0c0.53,0,0.6,0.44,0.6,0.68v4.8h2.69
		c0.33,0,0.47,0.21,0.47,0.49v1.54c0,0.35-0.23,0.48-0.55,0.48H85v6.3c0,0.58,0,2.02,1.5,2.04c0.15,0,0.57,0.01,0.76,0.01
		c0.38,0.01,0.54,0.35,0.59,0.55l0.37,1.73c0.04,0.28-0.18,0.42-0.4,0.43l0,0c-0.96,0.04-1.74,0.03-2.39-0.07
		c-2.25-0.35-3.42-1.7-3.42-4.28C81.99,23.69,81.98,10.04,81.98,9.64"/>
	<path class="st0" d="M105.77,14.48h-1.75c-0.33,0-0.6,0.18-0.6,0.56v12.41c0,0.33,0.27,0.6,0.6,0.6h1.75c0.33,0,0.6-0.27,0.6-0.6
		V15.08C106.36,14.68,106.1,14.48,105.77,14.48"/>
	<path class="st0" d="M78.52,9.01h-1.75c-0.33,0-0.6,0.18-0.6,0.56v17.88c0,0.33,0.27,0.6,0.6,0.6h1.75c0.33,0,0.6-0.27,0.6-0.6V9.6
		C79.12,9.2,78.85,9.01,78.52,9.01"/>
	<path class="st0" d="M104.27,12.45h1.24c0.48,0,0.87-0.39,0.87-0.87V9.88c0-0.48-0.39-0.87-0.87-0.87h-1.24
		c-0.48,0-0.87,0.39-0.87,0.87v1.71C103.4,12.06,103.79,12.45,104.27,12.45"/>
	<path class="st0" d="M91.22,28.05h1.24c0.48,0,0.87-0.39,0.87-0.87v-1.71c0-0.48-0.39-0.87-0.87-0.87h-1.24
		c-0.48,0-0.87,0.39-0.87,0.87v1.71C90.35,27.66,90.74,28.05,91.22,28.05"/>
</g>
</svg>
