<?xml version="1.0" encoding="utf-8"?>
<!-- Generator: Adobe Illustrator 24.1.3, SVG Export Plug-In . SVG Version: 6.00 Build 0)  -->
<svg version="1.1" id="Layer_1" xmlns="http://www.w3.org/2000/svg" xmlns:xlink="http://www.w3.org/1999/xlink" x="0px" y="0px"
	 viewBox="0 0 48 48" style="enable-background:new 0 0 48 48;" xml:space="preserve">
<style type="text/css">
	.st0{stroke:#000000;stroke-width:0.384;stroke-miterlimit:3.84;}
</style>
<desc>Created with Sketch.</desc>
<g id="Cult_icon_web_blk">
	<g id="Group-6" transform="translate(10.000000, 6.000000)">
		<path id="cult" class="st0" d="M22.5,4.7c0-1.1-0.9-1.9-2.1-1.9c-1.1,0-2.1,0.9-2.1,1.9s0.9,1.9,2.1,1.9
			C21.6,6.6,22.5,5.7,22.5,4.7z M10.7,27.2c0.8,0.3,1.1,1.2,0.8,2L11,30.5c-1,3.1-2.6,4.7-5.3,5.3l-7,2.3c-0.8,0.3-1.7-0.2-1.9-1
			c-0.3-0.8,0.2-1.6,1-1.9l7-2.3l0.1,0c1.6-0.4,2.4-1.2,3.2-3.4L8.7,28C9.1,27.2,10,26.9,10.7,27.2z M17.3,10.7
			c0,0.1,0.1,0.2,0.1,0.3c0.1,0.3,0.3,0.6,0.4,0.9c0.4,0.9,0.9,1.9,1.5,2.7c1.6,2.5,3.1,3.7,4.1,3.4c1.2-0.3,2.3-0.9,3.2-1.5
			c0.6-0.4,1.1-0.9,1.5-1.3c0.2-0.3,0.4-0.4,0.4-0.5c0.4-0.7,1.4-0.9,2.1-0.5c0.7,0.4,1,1.4,0.5,2.1C30.6,17,29.7,18,28.4,19
			c-1.2,0.9-2.6,1.5-4.2,2c-2.9,0.8-5.3-1.2-7.5-4.8c-0.4-0.7-0.8-1.4-1.2-2.2c-0.2,0.3-0.4,0.6-0.6,0.9c-1.1,1.6-1.8,3.2-2,4.5
			c-0.2,1.2,0.1,2.1,0.7,3c0.4,0.5,2.5,1.6,5.2,2.7c2.7,1.1,4.6,3.6,4.6,6.5l0.1,4.5c0,0.8-0.6,1.5-1.5,1.5c-0.8,0-1.5-0.6-1.6-1.5
			l-0.1-4.5c0-1.7-1.1-3.1-2.7-3.8c-3.3-1.3-5.6-2.5-6.5-3.6C10,22.8,9.6,21,9.9,19.1c0.3-1.9,1.1-3.8,2.4-5.8
			c0.5-0.8,1.1-1.5,1.7-2.2c0.3-0.4,0.6-0.7,0.8-0.9C15.5,9.4,16.9,9.7,17.3,10.7z M8.9,9.7c0.8,0,1.5,0.7,1.5,1.5s-0.7,1.5-1.5,1.5
			c-0.1,0-0.4,0-0.8,0.1c-0.6,0.1-1.2,0.3-1.8,0.6C5,14.1,4.2,15.2,4,16.9c-0.1,0.8-0.9,1.4-1.7,1.3S0.8,17.3,1,16.5
			c0.4-2.8,1.8-4.7,4-5.8C6.4,10,7.9,9.7,8.9,9.7z M20.4-0.2c2.8,0,5.1,2.2,5.1,4.9s-2.3,4.9-5.1,4.9c-2.8,0-5.1-2.2-5.1-4.9
			S17.6-0.2,20.4-0.2z"/>
	</g>
</g>
</svg>
