<?xml version="1.0" encoding="utf-8"?>
<!-- Generator: Adobe Illustrator 24.1.3, SVG Export Plug-In . SVG Version: 6.00 Build 0)  -->
<svg version="1.1" id="Layer_1" xmlns="http://www.w3.org/2000/svg" xmlns:xlink="http://www.w3.org/1999/xlink" x="0px" y="0px"
	 viewBox="0 0 48 48" style="enable-background:new 0 0 48 48;" xml:space="preserve">
<style type="text/css">
	.st0{fill-rule:evenodd;clip-rule:evenodd;}
</style>
<desc>Created with Sketch.</desc>
<g id="Eat_icon_web_blk">
	<g id="Group" transform="translate(13.000000, 8.000000)">
		<path id="eat" d="M0.9,25.6c1.3,5.8,4.9,8.8,11.1,8.6c6.1-0.2,9.3-3.2,10-8.8c0.1-0.4-0.3-0.8-0.8-0.8L1.7,24.7
			C1.2,24.7,0.8,25.2,0.9,25.6z M24.9,26.4C24,33,19.6,36.9,11.7,37.1c-8,0.2-12.9-3.6-14.5-10.3c-0.5-2,1.2-4,3.6-4l20.5-0.1
			C23.4,22.7,25.2,24.4,24.9,26.4z M5.5,17.1c0.3,0.7-0.2,1.5-1.1,1.7c-0.9,0.2-1.8-0.2-2-0.9l-1.1-3.1c-0.8-2.3-0.1-4.7,1.9-6.4
			c1.4-1.3,1.7-3.1,0.7-4.6L2.5,1.7C2,1,2.3,0.2,3.1-0.2s1.8-0.1,2.2,0.6l1.3,2.1C8.3,5,7.8,8.1,5.5,10.3c-1.1,1-1.6,2.5-1.1,3.8
			L5.5,17.1z M12.2,17.1c0.3,0.7-0.2,1.5-1.1,1.7c-0.9,0.2-1.8-0.2-2-0.9l-1.1-3.1c-0.8-2.3-0.1-4.7,1.9-6.4
			c1.4-1.3,1.7-3.1,0.7-4.6L9.2,1.7C8.8,1,9.1,0.2,9.9-0.2s1.8-0.1,2.2,0.6l1.3,2.1c1.6,2.6,1.2,5.7-1.2,7.8c-1.1,1-1.6,2.5-1.1,3.8
			L12.2,17.1z M18.9,17.1c0.3,0.7-0.2,1.5-1.1,1.7c-0.9,0.2-1.8-0.2-2-0.9l-1.1-3.1c-0.8-2.3-0.1-4.7,1.9-6.4
			c1.4-1.3,1.7-3.1,0.7-4.6l-1.3-2.1c-0.4-0.7-0.1-1.5,0.7-1.9s1.8-0.1,2.2,0.6l1.3,2.1c1.6,2.6,1.2,5.7-1.2,7.8
			c-1.1,1-1.6,2.5-1.1,3.8L18.9,17.1z"/>
		<polygon id="Path-8" class="st0" points="0,25.6 23.5,25.6 23.5,23.7 1.4,23.7 		"/>
	</g>
</g>
</svg>
