<?xml version="1.0" encoding="UTF-8"?>
<svg width="16px" height="16px" viewBox="0 0 16 16" version="1.1" xmlns="http://www.w3.org/2000/svg" xmlns:xlink="http://www.w3.org/1999/xlink">
    <!-- Generator: Sketch 47.1 (45422) - http://www.bohemiancoding.com/sketch -->
    <title>instagram_icon_white</title>
    <desc>Created with Sketch.</desc>
    <defs></defs>
    <g id="Page-1" stroke="none" stroke-width="1" fill="none" fill-rule="evenodd">
        <g id="Assets" transform="translate(-1208.000000, -1506.000000)" fill="#FFFFFF">
            <g id="instagram_icon_white" transform="translate(1208.000000, 1506.000000)">
                <path d="M16,11.3082707 C16,12.6917293 15.5169811,13.8947368 14.6716981,14.7368421 C13.8264151,15.5789474 12.6188679,16 11.290566,16 L4.70943396,16 C3.38113208,16 2.17358491,15.5789474 1.32830189,14.7368421 C0.422641509,13.8947368 0,12.6917293 0,11.3082707 L0,4.69172932 C0,1.92481203 1.87169811,0 4.70943396,0 L11.3509434,0 C12.7396226,0 13.8867925,0.481203008 14.7320755,1.32330827 C15.5773585,2.16541353 16,3.30827068 16,4.69172932 L16,11.3082707 L16,11.3082707 Z M11.0138249,2 L4.93087558,2 C4.04608295,2 3.2718894,2.2764977 2.77419355,2.77419355 C2.2764977,3.2718894 2,4.04608295 2,4.93087558 L2,11.0138249 C2,11.8986175 2.2764977,12.6728111 2.82949309,13.2258065 C3.38248848,13.7235023 4.10138249,14 4.98617512,14 L11.0138249,14 C11.8986175,14 12.6728111,13.7235023 13.1705069,13.2258065 C13.7235023,12.7281106 14,11.9539171 14,11.0691244 L14,4.98617512 C14,4.10138249 13.7235023,3.38248848 13.2258065,2.82949309 C12.6728111,2.2764977 11.9539171,2 11.0138249,2 L11.0138249,2 Z" id="shape"></path>
                <path d="M12,5 C11.4375,5 11,4.5625 11,4 C11,3.4375 11.4375,3 12,3 C12.5625,3 13,3.4375 13,4 C13,4.5625 12.5625,5 12,5 Z M7.97080292,12 C5.75182482,12 4,10.1764706 4,8 C4,5.76470588 5.81021898,4 7.97080292,4 C10.1313869,4 12,5.76470588 12,8 C12,10.2352941 10.189781,12 7.97080292,12 Z M8,10 C9.1045695,10 10,9.1045695 10,8 C10,6.8954305 9.1045695,6 8,6 C6.8954305,6 6,6.8954305 6,8 C6,9.1045695 6.8954305,10 8,10 Z" id="shape"></path>
            </g>
        </g>
    </g>
</svg>