<svg xmlns="http://www.w3.org/2000/svg" width="38" height="42" viewBox="0 0 38 42">
    <g fill="none" fill-rule="evenodd">
        <path fill="#000" d="M36.04 19.067c.644 0 1.168.527 1.168 1.174v1.666c0 .647-.524 1.173-1.168 1.173H1.852a1.171 1.171 0 0 1-1.166-1.173V20.24c0-.647.523-1.174 1.166-1.174H36.04zM21.276 25.76l9 10.533c.203.238.3.541.278.854a1.17 1.17 0 0 1-.403.8l-1.256 1.086a1.166 1.166 0 0 1-1.646-.125l-7.652-8.955a.9.9 0 0 0-1.37 0l-7.646 8.912a1.163 1.163 0 0 1-1.645.126L7.68 37.905a1.167 1.167 0 0 1-.403-.801 1.17 1.17 0 0 1 .278-.853l8.993-10.49c.222-.26.545-.41.885-.41h2.958c.34 0 .663.15.885.41zm-1.747 9.066c.482 0 .873.393.873.878V40.7a.876.876 0 0 1-.873.879h-1.234a.876.876 0 0 1-.873-.879v-4.996c0-.485.39-.878.873-.878h1.234zm7.943-19.085l-.685-1.025a.881.881 0 0 1 .238-1.22l5.531-3.725a.87.87 0 0 1 1.212.24l.684 1.026a.88.88 0 0 1-.239 1.22l-5.53 3.724a.87.87 0 0 1-1.211-.24zm-23.8-3.46a.882.882 0 0 1-.24-1.22l.684-1.025a.87.87 0 0 1 1.212-.24l5.53 3.725c.402.27.51.816.24 1.22l-.685 1.025a.87.87 0 0 1-1.211.24l-5.53-3.725zm15.24-2.615c-1.21 0-2.191.987-2.191 2.204s.98 2.203 2.19 2.203c1.211 0 2.192-.986 2.192-2.203a2.197 2.197 0 0 0-2.191-2.204zm0 7.558c-2.94 0-5.324-2.397-5.324-5.354 0-2.957 2.384-5.354 5.324-5.354s5.323 2.397 5.323 5.354c0 2.957-2.383 5.354-5.323 5.354z"/>
        <path fill="#DA2C6C" d="M18.287 4.563h1.25a.876.876 0 0 0 .873-.878V.878A.876.876 0 0 0 19.537 0h-1.25a.876.876 0 0 0-.873.878v2.807c0 .485.39.878.873.878"/>
        <path fill="#00B4DF" d="M11.072 26.774l-.684-1.025a.87.87 0 0 0-1.211-.24l-5.531 3.725a.882.882 0 0 0-.24 1.22l.686 1.025a.87.87 0 0 0 1.21.24l5.531-3.726a.881.881 0 0 0 .24-1.219"/>
        <path fill="#FBD020" d="M34.245 29.278l-5.532-3.726a.87.87 0 0 0-1.21.24l-.685 1.027a.88.88 0 0 0 .24 1.219l5.53 3.725a.87.87 0 0 0 1.21-.24l.686-1.025a.882.882 0 0 0-.239-1.22"/>
    </g>
</svg>
