<?xml version="1.0" encoding="utf-8"?>
<!-- Generator: Adobe Illustrator 24.1.3, SVG Export Plug-In . SVG Version: 6.00 Build 0)  -->
<svg version="1.1" id="Layer_1" xmlns="http://www.w3.org/2000/svg" xmlns:xlink="http://www.w3.org/1999/xlink" x="0px" y="0px"
	 viewBox="0 0 48 48" style="enable-background:new 0 0 48 48;" xml:space="preserve">
<style type="text/css">
	.st0{stroke:#000000;stroke-width:0.48;stroke-miterlimit:3.84;}
</style>
<desc>Created with Sketch.</desc>
<g id="Mind_icon_web_blk">
	<g id="mind-2" transform="translate(12.000000, 6.000000)">
		<path id="mind" class="st0" d="M1.5,36.2l21.1-0.1c1.5,0,3-0.8,3.8-2.2c0.8-1.4,0.8-2.9-0.3-4.5c-0.8-1.2-2.2-2-3.7-2l-1.1,0
			c-0.1,0-0.3,0.1-0.3,0.2l-0.7,1.9c-0.1,0.2,0.1,0.5,0.3,0.5l1.8,0c0.7,0,1.4,0.3,1.7,0.9c0.4,0.6,0.5,1,0.2,1.5
			c-0.3,0.6-1,1-1.7,1L1.5,33.6c-0.7,0-1.4-0.4-1.7-1c-0.3-0.5-0.3-0.9,0.2-1.5c0.4-0.6,1-0.9,1.7-0.9l1.4,0c0.2,0,0.4-0.3,0.3-0.5
			l-0.7-1.9c-0.1-0.1-0.2-0.2-0.3-0.2l-0.7,0c-1.5,0-2.9,0.7-3.7,2c-1.1,1.6-1,3.1-0.3,4.5C-1.5,35.4-0.1,36.2,1.5,36.2z M10.5,24.9
			c0,0.7,0.5,1.3,1.2,1.3c0.7,0,1.2-0.6,1.2-1.3l0-5.8c0-0.7-0.5-1.3-1.2-1.3c-0.7,0-1.2,0.6-1.2,1.3L10.5,24.9z M15.5,31.7
			c0.5,0,0.9-0.3,1.1-0.7c1-2.2,1.9-4.6,2.3-6.7c0.8-4.6,0.8-7.4-0.6-10.1c-1.1-2.2-2.8-3.3-5.2-3.3h-1.5c-2.1,0-3.9,0.7-5.2,2.1
			c-1.4,1.6-2.1,4-1.9,6.9c0.2,3.1,1.4,7.1,2.9,10.9c0.2,0.5,0.7,0.8,1.2,0.8c0.9,0,1.4-0.9,1.1-1.8C8.2,26,7.2,22.3,7,19.7
			c-0.2-2.2,0.3-3.9,1.2-5c0.8-0.9,1.9-1.3,3.3-1.3h1.5c1.5,0,2.3,0.5,3,1.9c1.1,2.1,1,4.5,0.3,8.4c-0.3,1.6-1,3.8-2,6.2
			C14.1,30.8,14.7,31.6,15.5,31.7z M12.3,2.4L12.3,2.4c0.6,0,1,0.2,1.4,0.6c0.4,0.4,0.6,0.9,0.6,1.5c0,1.1-0.9,2.1-1.9,2.1h0
			c-0.5,0-1-0.2-1.4-0.6c-0.4-0.4-0.6-0.9-0.6-1.5c0-0.6,0.2-1.1,0.6-1.5C11.2,2.7,11.7,2.4,12.3,2.4z M9.2,7.9
			c0.8,0.9,1.9,1.3,3.1,1.3c0,0,0,0,0,0c0,0,0,0,0,0c1.2,0,2.3-0.5,3.2-1.4c0.8-0.9,1.3-2.1,1.3-3.4c0-1.3-0.5-2.5-1.4-3.3
			c-0.9-0.9-2-1.4-3.2-1.3c-1.2,0-2.3,0.5-3.2,1.4C8.2,2.1,7.8,3.3,7.8,4.6C7.8,5.9,8.3,7,9.2,7.9z"/>
	</g>
</g>
</svg>
