<?xml version="1.0" encoding="utf-8"?>
<!-- Generator: Adobe Illustrator 24.1.3, SVG Export Plug-In . SVG Version: 6.00 Build 0)  -->
<svg version="1.1" id="Layer_1" xmlns="http://www.w3.org/2000/svg" xmlns:xlink="http://www.w3.org/1999/xlink" x="0px" y="0px"
	 viewBox="0 0 24 24" style="enable-background:new 0 0 24 24;" xml:space="preserve">
<style type="text/css">
	.st0{fill:#121212;}
</style>
<g id="Page-1">
	<g id="Care-assets" transform="translate(-1320.000000, -1294.000000)">
		<g id="store-icon-orders" transform="translate(1306.000000, 1285.000000)">
			<g id="Group-162" transform="translate(13.090908, 8.945455)">
				<path id="store-icon" class="st0" d="M12.9,0.2c2.2,0,4,1.5,4.1,3.6c0,0.4,0,0.9,0.1,1.4l0.6,0c0.8,0,1.5,0.5,1.7,1.3l0,0.1
					l2.2,12c0.2,0.9-0.4,1.8-1.4,2l-0.2,0l-0.2,0H6c-1,0-1.7-0.8-1.7-1.7l0-0.1l0-0.1l2-12.2c0.1-0.4,0.5-0.7,0.9-0.6
					C7.6,6,7.9,6.3,7.9,6.7l0,0.1L5.8,19c0,0,0,0,0,0c0,0.1,0.1,0.2,0.1,0.2l0.1,0h13.8c0,0,0,0,0,0c0.1,0,0.1-0.1,0.2-0.2l0-0.1
					L17.8,7c0-0.1-0.1-0.1-0.1-0.1l-0.1,0l-0.6,0l0,0.5c0,0.1,0,0.3,0,0.4l0,0.9c0,0.4-0.4,0.8-0.8,0.7c-0.4,0-0.8-0.4-0.7-0.8
					l0-0.9l0-0.8c0-0.5,0-1,0-1.5l0-0.6c0-0.3,0-0.6,0-0.9c-0.1-1.3-1.1-2.2-2.6-2.2c-1.3,0-2.4,0.9-2.5,2l0,0.1l0,1.4l3,0
					c0.4,0,0.8,0.3,0.8,0.8c0,0.4-0.3,0.7-0.7,0.8l-0.1,0l-3,0l0,1.8c0,0.4-0.3,0.8-0.8,0.8c-0.4,0-0.7-0.3-0.8-0.7l0-0.1V3.9
					C8.8,1.8,10.7,0.2,12.9,0.2z"/>
			</g>
		</g>
	</g>
</g>
</svg>
