<?xml version="1.0" encoding="UTF-8"?>
<svg width="14px" height="12px" viewBox="0 0 14 12" version="1.1" xmlns="http://www.w3.org/2000/svg" xmlns:xlink="http://www.w3.org/1999/xlink">
    <!-- Generator: Sketch 47.1 (45422) - http://www.bohemiancoding.com/sketch -->
    <title>twitter_icon_white</title>
    <desc>Created with Sketch.</desc>
    <defs></defs>
    <g id="Page-1" stroke="none" stroke-width="1" fill="none" fill-rule="evenodd">
        <g id="Assets" transform="translate(-1162.000000, -1508.000000)" fill="#FFFFFF">
            <g id="twitter_icon_white" transform="translate(1162.000000, 1508.000000)">
                <path d="M14,1.36294687 C13.4772593,1.5978904 12.9219367,1.75227009 12.3529412,1.82082923 C12.9545469,1.4544149 13.4030415,0.882459961 13.6154118,0.210829225 C13.0527436,0.549336726 12.4359559,0.788362825 11.7921176,0.917417461 C11.2510421,0.331153935 10.4890818,-0.00158763026 9.69129412,5.69603193e-06 C8.92451413,0.00479525753 8.19105629,0.314055239 7.65233664,0.859725118 C7.11361698,1.405395 6.81378399,2.14275673 6.81882353,2.90953511 C6.81858868,3.13286778 6.84345055,3.35551961 6.89294118,3.57329981 C4.57586433,3.45256004 2.42125937,2.34588203 0.973411765,0.532829225 C0.210950073,1.86123929 0.597841799,3.55259079 1.862,4.41741746 C1.40523494,4.4029986 0.958767762,4.27810082 0.560823529,4.05341746 L0.560823529,4.09047628 C0.554821251,5.46835994 1.518265,6.66062157 2.86670588,6.9440057 C2.44398034,7.06034659 2.00010461,7.07753797 1.56964706,6.99424099 C1.93850339,8.17325624 3.0176807,8.98611724 4.25270588,9.01518217 C3.238904,9.82236167 1.98106688,10.2613852 0.685176471,10.2603586 C0.460272282,10.3368569 0.214369935,10.3223747 1.77635684e-15,10.2200057 C1.30869414,11.0745958 2.83792979,11.5295892 4.40094118,11.5294175 C6.58687216,11.5291559 8.68163371,10.6533958 10.2173072,9.09776042 C11.7529806,7.54212506 12.6016154,5.43622835 12.5736471,3.25047628 C12.5736471,3.12365275 12.5736471,2.99847628 12.5654118,2.87329981 C13.129861,2.45943997 13.6157117,1.94793012 14,1.36294687 L14,1.36294687 Z" id="twitter-icon"></path>
            </g>
        </g>
    </g>
</svg>