<svg xmlns="http://www.w3.org/2000/svg" width="160" height="51" viewBox="0 0 160 51">
    <g fill="none" fill-rule="evenodd">
        <path fill="#000" d="M146.846.396H12.713c-.489 0-.972 0-1.46.003-.408.003-.813.01-1.225.016-.895.01-1.789.084-2.672.22a9.305 9.305 0 0 0-2.534.785 8.583 8.583 0 0 0-2.159 1.473A7.897 7.897 0 0 0 .26 7.299 15.254 15.254 0 0 0 .02 9.8c-.012.383-.013.768-.02 1.15v28.894c.007.388.008.764.02 1.152.01.839.09 1.675.24 2.503a7.88 7.88 0 0 0 .832 2.38c.404.748.935 1.43 1.571 2.018a8.365 8.365 0 0 0 2.159 1.473c.798.38 1.652.646 2.534.789.884.136 1.777.21 2.672.22.412.01.817.014 1.225.014.488.003.971.003 1.46.003h134.133c.48 0 .966 0 1.446-.003.406 0 .823-.005 1.229-.013.893-.01 1.785-.085 2.667-.221a9.5 9.5 0 0 0 2.544-.789 8.369 8.369 0 0 0 2.156-1.473 8.042 8.042 0 0 0 1.576-2.018c.402-.75.68-1.552.825-2.38.149-.828.231-1.664.247-2.503.006-.388.006-.764.006-1.152.01-.454.01-.906.01-1.367V12.317c0-.458 0-.912-.01-1.365 0-.383 0-.768-.006-1.151a15.86 15.86 0 0 0-.247-2.503 7.914 7.914 0 0 0-.825-2.379c-.823-1.503-2.129-2.727-3.732-3.5a9.45 9.45 0 0 0-2.544-.783 18.522 18.522 0 0 0-2.667-.221c-.406-.006-.823-.014-1.23-.016-.479-.003-.965-.003-1.445-.003z"/>
        <path fill="#FFF" d="M11.26 49.303c-.406 0-.803-.005-1.206-.014a18.016 18.016 0 0 1-2.492-.203 8.214 8.214 0 0 1-2.21-.685A7.208 7.208 0 0 1 3.49 47.13a6.69 6.69 0 0 1-1.36-1.746 6.844 6.844 0 0 1-.724-2.071 14.573 14.573 0 0 1-.222-2.344c-.009-.264-.02-1.141-.02-1.141V10.952s.012-.864.02-1.118c.01-.784.084-1.567.22-2.34a6.884 6.884 0 0 1 .725-2.078 6.753 6.753 0 0 1 1.353-1.747 7.42 7.42 0 0 1 1.87-1.278 8.13 8.13 0 0 1 2.205-.68 17.872 17.872 0 0 1 2.5-.205l1.203-.016h137.025l1.218.016c.83.01 1.658.077 2.477.203a8.293 8.293 0 0 1 2.228.685c1.384.669 2.51 1.726 3.22 3.025a6.89 6.89 0 0 1 .714 2.061c.138.78.216 1.569.232 2.36.004.353.004.734.004 1.112.01.469.01.915.01 1.365v26.16c0 .455 0 .898-.01 1.345 0 .406 0 .778-.006 1.162-.015.776-.091 1.55-.228 2.317a6.862 6.862 0 0 1-.72 2.087 6.893 6.893 0 0 1-1.354 1.732 7.215 7.215 0 0 1-1.866 1.278c-.7.333-1.45.564-2.224.688a17.81 17.81 0 0 1-2.492.203c-.39.009-.8.014-1.196.014l-1.446.002-135.586-.002z"/>
        <g fill="#000">
            <path d="M32.246 25.258a6.433 6.433 0 0 1 3.063-5.397 6.585 6.585 0 0 0-5.188-2.805c-2.183-.229-4.299 1.307-5.411 1.307-1.134 0-2.847-1.284-4.69-1.246a6.91 6.91 0 0 0-5.815 3.546c-2.514 4.352-.639 10.75 1.77 14.267 1.204 1.723 2.612 3.648 4.455 3.58 1.803-.075 2.476-1.15 4.653-1.15 2.156 0 2.788 1.15 4.668 1.106 1.934-.031 3.153-1.73 4.316-3.47a14.25 14.25 0 0 0 1.974-4.02 6.216 6.216 0 0 1-3.795-5.718zM28.695 14.743a6.334 6.334 0 0 0 1.449-4.538c-1.612.17-3.1.94-4.17 2.157a6.027 6.027 0 0 0-1.486 4.37 5.328 5.328 0 0 0 4.207-1.99z"/>
            <g fill-rule="nonzero">
                <path d="M53.877 34.321H47.96l-1.42 4.196h-2.507l5.605-15.523h2.603l5.605 15.523h-2.55l-1.419-4.196zm-5.304-1.936h4.69l-2.312-6.81h-.065l-2.313 6.81zm21.376.474c0 3.517-1.882 5.776-4.723 5.776a3.837 3.837 0 0 1-3.56-1.98h-.054v5.606h-2.323V27.199h2.248v1.883h.043a4.015 4.015 0 0 1 3.603-2c2.873 0 4.766 2.27 4.766 5.777zm-2.388 0c0-2.292-1.184-3.798-2.99-3.798-1.775 0-2.97 1.538-2.97 3.798 0 2.28 1.195 3.807 2.97 3.807 1.806 0 2.99-1.495 2.99-3.807zm14.845 0c0 3.517-1.883 5.776-4.724 5.776a3.837 3.837 0 0 1-3.56-1.98h-.054v5.606h-2.323V27.199h2.248v1.883h.043a4.015 4.015 0 0 1 3.603-2c2.873 0 4.767 2.27 4.767 5.777zm-2.389 0c0-2.292-1.184-3.798-2.99-3.798-1.775 0-2.97 1.538-2.97 3.798 0 2.28 1.195 3.807 2.97 3.807 1.806 0 2.99-1.495 2.99-3.807zm10.62 1.333c.172 1.539 1.667 2.55 3.71 2.55 1.959 0 3.367-1.011 3.367-2.399 0-1.205-.85-1.926-2.86-2.42l-2.013-.485c-2.85-.689-4.173-2.022-4.173-4.185 0-2.678 2.334-4.518 5.647-4.518 3.281 0 5.53 1.84 5.605 4.518h-2.345c-.14-1.549-1.42-2.484-3.292-2.484-1.871 0-3.152.946-3.152 2.323 0 1.097.818 1.743 2.819 2.238l1.71.42c3.185.753 4.507 2.032 4.507 4.302 0 2.904-2.312 4.723-5.991 4.723-3.443 0-5.767-1.776-5.917-4.583h2.378zm14.546-9.67v2.677h2.152v1.84h-2.152v6.24c0 .968.43 1.42 1.377 1.42a7.26 7.26 0 0 0 .764-.054v1.829a6.38 6.38 0 0 1-1.29.107c-2.292 0-3.185-.86-3.185-3.055v-6.487h-1.646V27.2h1.646v-2.678h2.334zm3.397 8.337c0-3.561 2.097-5.799 5.367-5.799 3.282 0 5.37 2.238 5.37 5.799 0 3.57-2.077 5.798-5.37 5.798-3.29 0-5.367-2.228-5.367-5.798zm8.37 0c0-2.443-1.12-3.885-3.003-3.885-1.882 0-3.001 1.453-3.001 3.885 0 2.452 1.12 3.883 3.001 3.883 1.883 0 3.002-1.43 3.002-3.883zm4.281-5.66h2.216v1.927h.054a2.7 2.7 0 0 1 2.722-2.045c.268 0 .535.028.796.087v2.173a3.247 3.247 0 0 0-1.044-.14 2.34 2.34 0 0 0-2.42 2.603v6.713h-2.324V27.199zm16.498 7.994c-.312 2.054-2.313 3.464-4.873 3.464-3.292 0-5.336-2.206-5.336-5.745 0-3.55 2.055-5.852 5.238-5.852 3.132 0 5.1 2.151 5.1 5.583v.795h-7.993v.14a2.948 2.948 0 0 0 3.045 3.206 2.56 2.56 0 0 0 2.613-1.591h2.206zm-7.853-3.378h5.658a2.722 2.722 0 0 0-2.776-2.872 2.865 2.865 0 0 0-2.882 2.872z"/>
            </g>
        </g>
        <g fill="#000" fill-rule="nonzero">
            <path d="M48.283 11.31a3.3 3.3 0 0 1 3.51 3.706c0 2.383-1.289 3.753-3.51 3.753h-2.694V11.31h2.694zm-1.536 6.404h1.406a2.345 2.345 0 0 0 2.46-2.682 2.351 2.351 0 0 0-2.46-2.668h-1.406v5.35zm6.354-1.762a2.667 2.667 0 1 1 5.309 0 2.667 2.667 0 1 1-5.31 0zm4.166 0c0-1.22-.548-1.934-1.51-1.934-.965 0-1.509.714-1.509 1.934 0 1.23.544 1.938 1.51 1.938.961 0 1.51-.713 1.51-1.938zm8.2 2.817h-1.153l-1.163-4.146h-.088l-1.158 4.146h-1.142l-1.551-5.629h1.126l1.009 4.295h.083l1.157-4.295h1.066l1.157 4.295h.088L65.9 13.14h1.111l-1.545 5.629zm2.85-5.629h1.07v.894h.082a1.685 1.685 0 0 1 1.68-1.003 1.83 1.83 0 0 1 1.948 2.094v3.644h-1.11v-3.365c0-.905-.394-1.355-1.215-1.355a1.291 1.291 0 0 0-1.344 1.427v3.293h-1.111V13.14zm6.55-2.197h1.111v7.826h-1.11v-7.826zm2.655 5.009a2.667 2.667 0 1 1 5.31 0 2.667 2.667 0 1 1-5.31 0zm4.166 0c0-1.22-.548-1.934-1.51-1.934-.965 0-1.508.714-1.508 1.934 0 1.23.543 1.938 1.508 1.938.962 0 1.51-.713 1.51-1.938zm2.313 1.225c0-1.013.755-1.597 2.094-1.68l1.524-.088v-.486c0-.595-.393-.93-1.152-.93-.62 0-1.05.227-1.173.625h-1.076c.114-.966 1.023-1.587 2.3-1.587 1.411 0 2.207.703 2.207 1.892v3.846h-1.07v-.791h-.087a1.894 1.894 0 0 1-1.69.883A1.7 1.7 0 0 1 84 17.177zm3.618-.481v-.47l-1.374.087c-.775.052-1.127.316-1.127.812 0 .507.44.801 1.044.801a1.327 1.327 0 0 0 1.457-1.23zm2.566-.744c0-1.779.915-2.905 2.337-2.905a1.855 1.855 0 0 1 1.726.987h.083v-3.091h1.11v7.826h-1.064v-.89h-.088a1.954 1.954 0 0 1-1.767.982c-1.432 0-2.337-1.126-2.337-2.91zm1.148 0c0 1.194.562 1.912 1.504 1.912.936 0 1.514-.729 1.514-1.907 0-1.173-.584-1.912-1.514-1.912-.935 0-1.504.723-1.504 1.907zm8.704 0a2.667 2.667 0 1 1 5.31 0 2.667 2.667 0 1 1-5.31 0zm4.167 0c0-1.22-.548-1.934-1.51-1.934-.966 0-1.509.714-1.509 1.934 0 1.23.543 1.938 1.509 1.938.962 0 1.51-.713 1.51-1.938zm2.633-2.812h1.07v.894h.082a1.685 1.685 0 0 1 1.68-1.003 1.83 1.83 0 0 1 1.948 2.094v3.644h-1.11v-3.365c0-.905-.394-1.355-1.215-1.355a1.291 1.291 0 0 0-1.344 1.427v3.293h-1.111V13.14zm11.057-1.401v1.427h1.22v.935h-1.22v2.895c0 .59.243.847.796.847.141 0 .283-.009.423-.025v.925c-.2.036-.401.055-.604.057-1.235 0-1.727-.435-1.727-1.52v-3.179h-.894v-.935h.894v-1.427h1.112zm2.737-.796h1.1v3.102h.089a1.732 1.732 0 0 1 1.716-1.009 1.854 1.854 0 0 1 1.938 2.099v3.634h-1.112v-3.36c0-.9-.418-1.355-1.203-1.355a1.315 1.315 0 0 0-1.417 1.427v3.288h-1.111v-7.826zm11.32 6.306a2.285 2.285 0 0 1-2.438 1.628 2.557 2.557 0 0 1-2.6-2.905 2.596 2.596 0 0 1 2.595-2.94c1.566 0 2.51 1.07 2.51 2.837v.388h-3.974v.062a1.488 1.488 0 0 0 1.5 1.612 1.35 1.35 0 0 0 1.338-.682h1.07zm-3.907-1.814h2.843a1.358 1.358 0 0 0-1.385-1.458 1.44 1.44 0 0 0-1.458 1.458z"/>
        </g>
    </g>
</svg>
