<?xml version="1.0" encoding="UTF-8"?>
<svg width="47px" height="26px" viewBox="0 0 47 26" version="1.1" xmlns="http://www.w3.org/2000/svg" xmlns:xlink="http://www.w3.org/1999/xlink">
    <title>cult</title>
    <g id="Page-1" stroke="none" stroke-width="1" fill="none" fill-rule="evenodd">
        <g id="Icon-Standarization" transform="translate(-311.000000, -382.000000)" fill="#000000">
            <g id="Group-19" transform="translate(148.000000, 382.000000)">
                <path d="M191.514428,8.71319237 C191.927051,8.71319237 192.088993,8.90898422 192.088993,9.21343931 L192.088993,9.21343931 L192.088531,12.0403833 C192.087003,15.4286992 192.08045,19.0662607 192.052391,22.2547608 C192.048178,22.4465923 192.059238,22.7253048 191.67716,22.7253048 L191.67716,22.7253048 L190.554624,22.7253048 C190.292094,22.7253048 190.187029,22.6305029 190.061425,22.3703547 C190.008498,22.2604539 189.551373,21.1572373 189.515562,21.0701087 C188.221605,22.5574832 185.58603,23.3703536 183.307781,22.8347106 C181.181732,22.3352063 179.830108,21.072584 179.495954,18.8943687 C179.37904,18.1319933 179.388256,17.3371923 179.380619,16.5664011 C179.357974,14.2864532 179.373246,11.653288 179.373246,9.37358764 C179.373246,9.05428108 179.430124,8.71393494 179.978094,8.71393494 L179.978094,8.71393494 L181.996445,8.71418246 C182.461732,8.71418246 182.566797,8.98843957 182.566797,9.27136004 C182.566797,9.32393086 182.578434,11.2025349 182.593176,13.192181 L182.599659,14.046685 C182.614378,15.9384683 182.630808,17.708749 182.64158,17.876053 C182.786143,20.2577334 185.242134,20.5210994 186.81205,19.8349616 C188.059399,19.2896652 188.784584,18.1003102 188.830665,16.6933811 C188.839626,15.9662489 188.849934,14.7754224 188.859264,13.5554774 L188.863492,12.9919408 C188.874536,11.4921024 188.883557,10.0494314 188.886218,9.47413365 L188.88691,9.30063756 L188.88691,9.30063756 L188.887016,9.24735016 C188.887016,9.24735016 188.823292,8.71319237 189.394698,8.71393494 L189.394698,8.71393494 L190.748669,8.71346639 C190.808053,8.71344523 190.866098,8.71342452 190.921975,8.71340457 Z M170.409554,8.51680646 C172.594061,8.26779684 175.099028,8.82942986 176.720556,10.5922991 C177.11975,11.0227441 177.442581,11.3160606 176.936742,11.7460106 C176.511743,12.1076439 175.831849,12.6517026 175.620666,12.7932866 C175.257547,13.0363557 175.032145,12.8556628 174.823858,12.6799204 C174.629001,12.5153167 174.143438,12.1611092 173.939365,12.0323964 C172.567728,11.1697737 170.776886,11.2663082 169.768895,11.643288 C168.144734,12.250218 167.024569,13.7922954 167.064067,15.756402 C167.108305,17.9492212 168.417798,19.7034271 170.720799,20.0378327 C173.476447,20.4378322 175.183291,18.3895673 175.240958,18.3237258 C175.436342,18.1012013 175.714145,18.0046667 176.033553,18.2425377 C176.100699,18.2922902 177.05313,19.1452595 177.289591,19.3717443 C177.546592,19.6378331 177.456537,19.8870903 177.185053,20.212585 C176.301876,21.2724847 174.328289,22.9511956 171.43466,22.91976 C170.498029,22.9096115 169.516897,22.8049087 168.395152,22.3591171 C165.180009,21.0809008 163.713577,17.9450133 164.046151,14.7831358 C164.409533,11.3291794 166.934777,8.91309312 170.409554,8.51680646 Z M204.27399,3.05443656 C204.858562,3.05443656 204.937558,3.50443604 204.937558,3.75270308 L204.937558,8.71334088 L207.886748,8.71334088 C208.244863,8.71259831 208.405489,8.93215251 208.405489,9.2153205 L208.405489,10.808388 C208.405489,11.1682885 208.155334,11.304427 207.804855,11.304427 L204.937558,11.304427 L204.937558,17.8118452 C204.937558,18.4113494 204.941508,19.8969913 206.581731,19.9140705 C206.740777,19.9155556 207.205011,19.9212487 207.412507,19.9249615 C207.83066,19.9313972 208.001029,20.2826344 208.058433,20.4957529 L208.469213,22.2796618 C208.51266,22.5737208 208.276725,22.7101068 208.028151,22.7252058 C206.967496,22.7662949 206.109071,22.7556513 205.396789,22.6504534 C202.928949,22.2858499 201.641576,20.8940198 201.641576,18.224716 L201.641133,17.8293548 C201.641086,17.7869703 201.641035,17.7414399 201.640981,17.6928924 L201.640177,16.9737336 C201.640098,16.9031079 201.640017,16.8299798 201.639932,16.7544781 L201.639107,16.0143496 C201.639008,15.9257644 201.638907,15.8351918 201.638804,15.7427604 L201.638163,15.166896 C201.638052,15.0675443 201.63794,14.9665912 201.637826,14.8641654 L201.637124,14.2329687 C201.637004,14.1251671 201.636883,14.0161504 201.636761,13.9060471 L201.636014,13.2334188 C201.635635,12.8916152 201.635248,12.5423498 201.634857,12.1890977 L201.634071,11.4783077 C201.633676,11.1212846 201.63328,10.7625916 201.632887,10.405704 L201.632105,9.69536566 C201.631717,9.34242975 201.631335,8.99361601 201.630961,8.65239966 L201.630228,7.98112648 C201.630108,7.87127915 201.629989,7.7625334 201.629872,7.65501794 L201.629189,7.02571834 C201.629078,6.92363888 201.62897,6.82304713 201.628863,6.7240718 L201.628245,6.15064661 C201.628146,6.05865182 201.62805,5.96853088 201.627955,5.8804125 L201.627175,5.14489131 C201.627096,5.06994668 201.62702,4.99739074 201.626947,4.9273522 L201.626087,4.08166839 C201.626047,4.04002168 201.62601,4.00153594 201.625978,3.96633987 L201.625776,3.71012887 L201.625776,3.71012887 C201.625776,3.19775323 201.985472,3.05443656 202.352541,3.05542666 L202.515709,3.05565347 L202.515709,3.05565347 L202.944495,3.05561001 C203.023748,3.05556112 203.105697,3.05549592 203.188545,3.05542123 L204.27399,3.05443656 L204.27399,3.05443656 Z M197.829748,3.05458508 C198.191287,3.05458508 198.484363,3.2521096 198.484363,3.67067347 L198.484363,3.67067347 L198.484363,22.1082758 C198.484363,22.448622 198.191287,22.7243642 197.829748,22.7243642 L197.829748,22.7243642 L195.906982,22.7243642 C195.545443,22.7243642 195.252104,22.448622 195.252104,22.1082758 L195.252104,22.1082758 L195.252104,3.635525 C195.252104,3.24245614 195.545443,3.05458508 195.906982,3.05458508 L195.906982,3.05458508 Z" id="brand_cultfit"></path>
            </g>
        </g>
    </g>
</svg>
