<svg xmlns="http://www.w3.org/2000/svg" width="24" height="24" viewBox="0 0 24 24">
  <path d="M1361.7253,146.000222 C1363.64772,146.000222 1365.23115,147.56864 1365.23115,149.49302 L1365.23115,149.49302 L1365.23107,150.205531 L1367.52781,148.878986 C1368.57442,148.288688 1369.87529,149.005615 1369.89516,150.172217 L1369.89516,150.172217 L1369.89467,158.176711 C1369.89467,159.39684 1368.57092,160.144288 1367.50184,159.541276 L1367.50184,159.541276 L1365.17207,158.195248 L1365.15705,158.287413 C1364.86967,159.88253 1363.48357,161.115454 1361.81079,161.165113 L1361.81079,161.165113 L1361.70587,161.166668 L1353.50585,161.166668 C1351.58557,161.166668 1350,159.580963 1350,157.65453 L1350,157.65453 L1350,149.49302 C1350,147.561233 1351.59296,145.975753 1353.51513,146.000281 L1353.51513,146.000281 Z M1361.7253,147.45456 L1353.49657,147.4545 C1352.38745,147.440348 1351.45434,148.369077 1351.45434,149.49302 L1351.45434,149.49302 L1351.45434,157.65453 C1351.45434,158.777783 1352.3888,159.71233 1353.50585,159.71233 L1353.50585,159.71233 L1361.70587,159.71233 C1362.83264,159.71233 1363.75738,158.787489 1363.75738,157.67387 L1363.75738,157.67387 L1363.75738,156.139424 C1363.75738,155.992408 1364.0085,155.843458 1364.13406,155.915999 C1365.04268,156.440946 1366.4056,157.228366 1368.22283,158.278259 C1368.326,158.336449 1368.44033,158.271894 1368.44033,158.176711 L1368.44033,158.176711 L1368.44073,150.225804 C1368.443,150.14642 1368.34257,150.089163 1368.2488,150.142003 C1366.48816,151.159181 1365.16769,151.922064 1364.28737,152.430653 C1364.11719,152.528975 1363.77681,152.330259 1363.77681,152.132579 L1363.77681,152.132579 L1363.77681,149.49302 C1363.77681,148.374966 1362.8476,147.45456 1361.7253,147.45456 L1361.7253,147.45456 Z M1358.05617,150.728391 C1359.63291,150.728391 1360.91112,152.006593 1360.91112,153.583335 C1360.91112,155.160077 1359.63291,156.438279 1358.05617,156.438279 C1356.47943,156.438279 1355.20123,155.160077 1355.20123,153.583335 C1355.20123,152.006593 1356.47943,150.728391 1358.05617,150.728391 Z M1358.05617,152.182729 C1357.28264,152.182729 1356.65557,152.809801 1356.65557,153.583335 C1356.65557,154.356868 1357.28264,154.983941 1358.05617,154.983941 C1358.82971,154.983941 1359.45678,154.356868 1359.45678,153.583335 C1359.45678,152.809801 1358.82971,152.182729 1358.05617,152.182729 Z" transform="translate(-1348 -141.73)"/>
</svg>
