<?xml version="1.0" encoding="UTF-8"?>
<svg width="42px" height="26px" viewBox="0 0 42 26" version="1.1" xmlns="http://www.w3.org/2000/svg" xmlns:xlink="http://www.w3.org/1999/xlink">
    <title>brand_live</title>
    <g id="Page-1" stroke="none" stroke-width="1" fill="none" fill-rule="evenodd">
        <g id="Icon-Standarization" transform="translate(-1760.000000, -382.000000)" fill="#000000" fill-rule="nonzero">
            <g id="Group-19" transform="translate(148.000000, 382.000000)">
                <path d="M1629.07551,9.67435255 C1629.38629,9.67435255 1629.5558,9.81521405 1629.66881,10.0405925 L1632.38102,16.4638772 L1632.43753,16.4638772 L1635.31926,10.0405925 C1635.48877,9.70252484 1635.77129,9.67435255 1636.13857,9.67435255 L1638.51176,9.67435255 C1638.99204,9.67435255 1639.18981,10.0405925 1638.96379,10.4350047 L1633.08733,22.6617835 C1632.97432,22.8308172 1632.80481,22.9998511 1632.52229,22.9998511 L1632.35277,22.9998511 C1632.07025,22.9998511 1631.90074,22.8308172 1631.78773,22.6617835 L1625.93952,10.4350047 C1625.74175,10.0405925 1625.91127,9.67435255 1626.39155,9.67435255 L1629.07551,9.67435255 Z M1652.95519,13.4179708 C1653.11774,14.0692873 1653.13252,14.765234 1653.1239,15.4438702 L1653.12637,15.4498759 L1653.12637,16.2194209 C1653.12637,16.5616241 1652.83573,16.8390607 1652.4786,16.8390607 L1642.91359,16.8390607 C1642.91113,17.6716059 1643.29412,18.4969681 1643.82367,19.0536076 C1645.28175,20.5879874 1648.00089,20.4296036 1649.75577,19.4562204 C1649.81734,19.422138 1649.89329,19.3789042 1649.97383,19.3325778 L1650.21937,19.1903796 C1650.33922,19.1207005 1650.44734,19.0576955 1650.51067,19.0218131 C1650.90352,18.7983094 1651.13627,18.9126519 1651.30252,19.1691277 C1651.4109,19.3357545 1652.01679,20.377437 1652.09684,20.4989627 C1652.26925,20.7625039 1652.32097,21.0538359 1652.05866,21.255319 C1651.95891,21.3325678 1650.30625,22.6549842 1647.85434,22.8880263 C1646.65117,23.0023687 1645.43323,22.8748374 1644.61059,22.6519225 C1641.88776,21.9131121 1640.45553,20.2156383 1639.95924,17.4959118 C1639.6957,15.5742278 1639.69447,12.2343905 1642.1747,10.1890611 C1645.43446,7.54163774 1651.70522,8.40432893 1652.95519,13.4179708 Z M1622.61622,8.67405107 C1622.97901,8.67405107 1623.27289,8.8721147 1623.27289,9.29182093 L1623.27289,22.1056435 C1623.27289,22.4469185 1622.97901,22.7234133 1622.61622,22.7234133 L1620.68847,22.7234133 C1620.32568,22.7234133 1620.03181,22.4469185 1620.03181,22.1056435 L1620.03181,9.25657653 C1620.03181,8.8624349 1620.32568,8.67405107 1620.68847,8.67405107 L1622.61622,8.67405107 Z M1615.58468,3 C1615.94721,3 1616.24108,3.19806362 1616.24108,3.61776986 L1616.24108,22.1056931 C1616.24108,22.4469682 1615.94721,22.723463 1615.58468,22.723463 L1613.65667,22.723463 C1613.29414,22.723463 1613,22.4469682 1613,22.1056931 L1613,3.58252545 C1613,3.18838382 1613.29414,3 1613.65667,3 L1615.58468,3 Z M1642.91113,14.2863143 L1650.06241,14.2863143 C1650.04886,12.7327401 1648.67205,11.3702862 1646.85437,11.2752559 C1644.83226,11.1695097 1643.13649,12.4720251 1642.91113,14.2863143 Z M1622.33682,3.00009928 C1622.86516,3.00009928 1623.29317,3.40267972 1623.29317,3.89982436 L1623.29317,5.66924232 C1623.29317,6.16589057 1622.86516,6.56896741 1622.33682,6.56896741 L1620.9683,6.56896741 C1620.43969,6.56896741 1620.01195,6.16589057 1620.01195,5.66924232 L1620.01195,3.89982436 C1620.01195,3.40267972 1620.43969,3.00009928 1620.9683,3.00009928 L1622.33682,3.00009928 Z" id="live"></path>
            </g>
        </g>
    </g>
</svg>
